<?xml version="1.0" encoding="UTF-8"?>
<svg width="150px" height="35px" viewBox="0 0 150 35" version="1.1" xmlns="http://www.w3.org/2000/svg" xmlns:xlink="http://www.w3.org/1999/xlink">
    <title>9DE6D68E-3FA7-4B53-BE6F-1EC038E8B255</title>
    <g id="desktop-r2" stroke="none" stroke-width="1" fill="none" fill-rule="evenodd">
        <g id="CAC-hi-fidelity-prototype-desktop-cust-tab-1400-r2" transform="translate(-232.000000, -9.000000)">
            <g id="Group-11" transform="translate(232.000000, 9.000000)">
                <path d="M81.4927817,12.7271776 L81.4927817,6.2688715 L80.167015,6.2688715 C79.9775076,6.2688715 79.8513438,6.14275622 79.8513438,5.95332165 L79.8513438,5.02786572 C79.8513438,4.8386928 79.9775076,4.73324786 80.167015,4.73324786 L81.4927817,4.73324786 L81.4927817,2.29310029 C81.4927817,2.10366572 81.5980054,1.99874408 81.7875128,1.99874408 L83.1130177,1.99874408 C83.3025251,1.99874408 83.3868088,2.10366572 83.3868088,2.29310029 L83.3868088,4.73324786 L85.1122686,4.73324786 C85.301776,4.73324786 85.4069997,4.8386928 85.4069997,5.02786572 L85.4069997,5.95332165 C85.4069997,6.14275622 85.301776,6.2688715 85.1122686,6.2688715 L83.3868088,6.2688715 L83.3868088,12.4746854 C83.3868088,13.232162 83.72342,13.5265182 84.3338224,13.5265182 C84.502128,13.5265182 84.7756574,13.5055862 84.9863666,13.4846542 C85.280836,13.4631989 85.3860597,13.5686439 85.3860597,13.7790104 L85.3860597,14.6623407 C85.3860597,15.0621419 84.523068,15.1673252 83.9338675,15.1673252 C82.4607353,15.1673252 81.4927817,14.4310422 81.4927817,12.7271776 L81.4927817,12.7271776 Z M76.6302413,5.02786572 C76.6302413,4.8386928 76.7142632,4.73324786 76.9037706,4.73324786 L78.2295373,4.73324786 C78.4190447,4.73324786 78.5240067,4.8386928 78.5240067,5.02786572 L78.5240067,14.746592 C78.5240067,14.9357649 78.4190447,15.0412099 78.2295373,15.0412099 L76.9037706,15.0412099 C76.7142632,15.0412099 76.6302413,14.9357649 76.6302413,14.746592 L76.6302413,5.02786572 Z M76.4407339,1.15701614 C76.4407339,0.526178079 76.9459125,0.0211936471 77.5769931,0.0211936471 C78.2083355,0.0211936471 78.692574,0.526178079 78.692574,1.15701614 C78.692574,1.78811586 78.2083355,2.29310029 77.5769931,2.29310029 C76.9459125,2.29310029 76.4407339,1.78811586 76.4407339,1.15701614 L76.4407339,1.15701614 Z M69.4763364,13.5477119 C71.4965273,13.5477119 72.9063159,12.0751459 72.9063159,9.90842251 C72.9063159,7.67837986 71.4965273,6.22700751 69.4763364,6.22700751 C67.4349437,6.22700751 65.9618114,7.72050551 65.9618114,9.88722887 C65.9618114,12.0751459 67.4349437,13.5477119 69.4763364,13.5477119 L69.4763364,13.5477119 Z M64.1099261,9.88722887 C64.1099261,6.79478793 66.1513188,4.48075565 69.0763815,4.48075565 C70.7809012,4.48075565 72.1069296,5.25916429 72.8644358,6.47923808 L72.8644358,0.29461786 C72.8644358,0.105444936 72.9693978,0 73.1589052,0 L74.4849336,0 C74.6741792,0 74.779403,0.105444936 74.779403,0.29461786 L74.779403,9.99241215 C74.779403,12.9587378 72.7801521,15.2937021 69.4763364,15.2937021 C66.1934607,15.2937021 64.1099261,12.9587378 64.1099261,9.88722887 L64.1099261,9.88722887 Z M61.5432,9.17187786 C61.4379763,7.32096601 60.2174334,6.10089223 58.3655481,6.10089223 C56.5136628,6.10089223 55.2088362,7.25790837 54.9983887,9.17187786 L61.5432,9.17187786 Z M53.1465034,9.84510322 C53.1465034,6.81598158 55.271918,4.48075565 58.3655481,4.48075565 C61.4379763,4.48075565 63.2267797,6.81598158 63.2267797,9.36131244 C63.2267797,10.2030404 63.0584741,10.5813862 62.3640498,10.5813862 L54.9983887,10.5813862 C55.230038,12.4325597 56.5558046,13.7368848 58.8285848,13.7368848 C59.9648441,13.7368848 60.8191979,13.409299 61.6272219,12.8532929 C61.7523387,12.7674717 61.8798113,12.7693032 61.9643567,12.8742249 L62.4271317,13.5265182 C62.5744973,13.6947592 62.5111536,13.8211361 62.342848,13.9681834 C61.4379763,14.8517753 60.1122096,15.2937021 58.6602792,15.2937021 C55.2931198,15.2937021 53.1465034,12.8742249 53.1465034,9.84510322 L53.1465034,9.84510322 Z M47.6759164,14.746592 L47.6759164,5.02786572 C47.6759164,4.8386928 47.7811402,4.73324786 47.9703858,4.73324786 L49.2121305,4.73324786 C49.422578,4.73324786 49.5065999,4.8177608 49.5065999,5.04879772 L49.5699436,6.2688715 C49.9484349,5.25916429 50.6431209,4.48075565 51.9058057,4.48075565 C52.3476406,4.48075565 52.6633118,4.56526858 52.8528192,4.69138387 C52.9787213,4.7963055 53.0211249,4.88081844 53.0211249,5.06972972 L53.0211249,6.12182422 C53.0211249,6.35312279 52.8737593,6.39524844 52.64211,6.3321908 C52.3685807,6.2688715 52.1162531,6.22700751 51.8846039,6.22700751 C50.1591441,6.22700751 49.5699436,7.67837986 49.5699436,8.9196473 L49.5699436,14.746592 C49.5699436,14.9357649 49.4856599,15.0412099 49.2961525,15.0412099 L47.9703858,15.0412099 C47.7811402,15.0412099 47.6759164,14.9357649 47.6759164,14.746592 L47.6759164,14.746592 Z M35.5050383,9.88722887 C35.5050383,6.81598158 37.7987586,4.48075565 40.9133286,4.48075565 C43.3544145,4.48075565 45.3680616,5.8981135 45.879784,8.1624323 C45.9271608,8.37149062 45.8167021,8.49891415 45.6274564,8.49891415 L44.280488,8.49891415 C44.1121824,8.49891415 44.0284222,8.41466286 43.9648168,8.22548994 C43.5470629,6.98317591 42.3655208,6.22700751 40.9133286,6.22700751 C38.8300558,6.22700751 37.3569236,7.72050551 37.3569236,9.88722887 C37.3569236,12.0539522 38.8300558,13.5265182 40.9133286,13.5265182 C42.3655208,13.5265182 43.5470629,12.7912818 43.9648168,11.5492294 C44.0284222,11.3600565 44.1121824,11.2755436 44.280488,11.2755436 L45.6274564,11.2755436 C45.8167021,11.2755436 45.9193083,11.4011356 45.8588439,11.6332191 C45.2858719,13.8355268 43.3544145,15.2937021 40.9133286,15.2937021 C37.7987586,15.2937021 35.5050383,12.9587378 35.5050383,9.88722887 L35.5050383,9.88722887 Z" id="Fill-1" fill="#2B4361"></path>
                <path d="M146.771568,24.4738219 C146.554839,23.3476805 145.774561,22.979539 144.886441,22.979539 C143.954609,22.979539 143.131403,23.3908527 142.84976,24.4738219 L146.771568,24.4738219 Z M139.361148,25.5353358 C139.361148,22.4164682 141.549645,20.0121667 144.864716,20.0121667 C148.114872,20.0121667 150,22.3730344 150,25.1020435 C150,26.2499019 149.718356,26.9647296 148.656434,26.9647296 L142.914674,26.9647296 C143.304682,27.9393757 144.236252,28.3075172 145.558093,28.3075172 C146.164831,28.3075172 146.851402,28.2729794 147.746589,27.8093357 C147.918559,27.720113 148.028233,27.7661634 148.136598,27.9393757 L149.133082,29.3255972 C149.219983,29.4553756 149.241709,29.6288495 149.024717,29.8235171 C148.136598,30.7335357 146.771568,31.1448494 145.254724,31.1448494 C141.766374,31.1448494 139.361148,28.8059604 139.361148,25.5353358 L139.361148,25.5353358 Z M127.422966,25.5785081 C127.422966,22.4596405 129.784742,20.0121667 132.991448,20.0121667 C135.634867,20.0121667 137.739341,21.5807583 138.343462,24.1708313 C138.404188,24.4316963 138.278286,24.5604281 138.061818,24.5604281 L135.07158,24.5604281 C134.898301,24.5604281 134.746485,24.4738219 134.681571,24.2788927 C134.313026,23.564065 133.57646,23.3476805 132.991448,23.3476805 C131.864873,23.3476805 130.911316,24.1708313 130.911316,25.5785081 C130.911316,26.9864465 131.864873,27.8093357 132.991448,27.8093357 C133.57646,27.8093357 134.313026,27.5929511 134.681571,26.8778618 C134.746485,26.6829326 134.898301,26.5963264 135.07158,26.5963264 L138.061818,26.5963264 C138.278286,26.5963264 138.408638,26.7266281 138.343462,27.0081635 C137.740127,29.6079175 135.613142,31.1448494 132.991448,31.1448494 C129.784742,31.1448494 127.422966,28.6976373 127.422966,25.5785081 L127.422966,25.5785081 Z M115.790509,30.5386065 L115.790509,20.6186713 C115.790509,20.4237421 115.942062,20.2719851 116.137067,20.2719851 L118.997215,20.2719851 C119.170494,20.2719851 119.322309,20.3585913 119.322309,20.6403883 L119.430412,21.8314189 C120.03715,20.7487114 120.968982,20.0121667 122.464101,20.0121667 C124.652336,20.0121667 126.299009,21.6582067 126.299009,24.4089327 L126.299009,30.5386065 C126.299009,30.7335357 126.12573,30.885031 125.930726,30.885031 L123.005663,30.885031 C122.810659,30.885031 122.659106,30.7335357 122.659106,30.5386065 L122.659106,25.3186897 C122.659106,23.997619 122.117282,23.3476805 121.055622,23.3476805 C120.015425,23.3476805 119.430412,23.997619 119.430412,25.3186897 L119.430412,30.5386065 C119.430412,30.7335357 119.278859,30.885031 119.083855,30.885031 L116.137067,30.885031 C115.942062,30.885031 115.790509,30.7335357 115.790509,30.5386065 L115.790509,30.5386065 Z M108.748895,27.8527696 C110.005821,27.8527696 110.915928,26.9212957 110.915928,25.5570528 C110.915928,24.2357205 110.005821,23.3042466 108.748895,23.3042466 C107.492492,23.3042466 106.538935,24.2140035 106.538935,25.5785081 C106.538935,26.9212957 107.492492,27.8527696 108.748895,27.8527696 L108.748895,27.8527696 Z M102.985409,25.5785081 C102.985409,22.4596405 105.022352,20.0121667 108.814071,20.0121667 C112.606051,20.0121667 114.512643,22.5030744 114.512643,25.4270127 L114.512643,30.5386065 C114.512643,30.7335357 114.317638,30.885031 114.122634,30.885031 L111.500941,30.885031 C111.305936,30.885031 111.154121,30.7335357 111.154121,30.5386065 L111.132657,29.6720218 C110.503933,30.6034956 109.269255,31.1448494 107.903964,31.1448494 C105.022352,31.1448494 102.985409,28.7190926 102.985409,25.5785081 L102.985409,25.5785081 Z M96.8319149,27.5712342 L96.8319149,23.0661451 L95.5103363,23.0661451 C95.3153321,23.0661451 95.1852421,22.9143881 95.1852421,22.7194589 L95.1852421,20.6186713 C95.1852421,20.4237421 95.3153321,20.2719851 95.5103363,20.2719851 L96.8319149,20.2719851 L96.8319149,17.8030561 C96.8319149,17.6081268 96.9837302,17.4563699 97.1787344,17.4563699 L100.168973,17.4563699 C100.363977,17.4563699 100.515531,17.6081268 100.515531,17.8030561 L100.515531,20.2719851 L102.097289,20.2719851 C102.292294,20.2719851 102.443847,20.4237421 102.443847,20.6186713 L102.443847,22.7194589 C102.443847,22.9143881 102.292294,23.0661451 102.097289,23.0661451 L100.515531,23.0661451 L100.515531,27.1813758 C100.515531,27.7010126 100.905539,28.0042649 101.425376,28.0042649 C101.62038,28.0042649 101.793921,28.0259818 102.097289,28.0042649 C102.270568,27.9825479 102.465572,28.090871 102.465572,28.3075172 L102.465572,30.3002433 C102.465572,30.8633141 101.252097,31.015071 100.472342,31.015071 C98.6738537,31.015071 96.8319149,30.2136372 96.8319149,27.5712342 L96.8319149,27.5712342 Z M89.1191725,27.8527696 C90.3541117,27.8527696 91.3076691,26.9212957 91.3076691,25.5785081 C91.3076691,24.2140035 90.3541117,23.3042466 89.1191725,23.3042466 C87.862508,23.3042466 86.930676,24.2357205 86.930676,25.5570528 C86.930676,26.9212957 87.862508,27.8527696 89.1191725,27.8527696 L89.1191725,27.8527696 Z M83.3556867,34.6535754 L83.3556867,25.4270127 C83.3556867,22.5030744 85.2622778,20.0121667 89.0542584,20.0121667 C92.8242519,20.0121667 94.8826584,22.4596405 94.8826584,25.5785081 C94.8826584,28.7190926 92.8459772,31.1448494 89.9641034,31.1448494 C88.7940783,31.1448494 87.7109545,30.754991 87.0173154,30.0618802 L87.0173154,34.6535754 C87.0173154,34.8485047 86.8657619,35 86.6707577,35 L83.7022444,35 C83.5072403,35 83.3556867,34.8485047 83.3556867,34.6535754 L83.3556867,34.6535754 Z M79.0833938,24.4738219 C78.8666643,23.3476805 78.0863859,22.979539 77.1982662,22.979539 C76.2664342,22.979539 75.4432286,23.3908527 75.1613232,24.4738219 L79.0833938,24.4738219 Z M71.6729734,25.5353358 C71.6729734,22.4164682 73.8614699,20.0121667 77.1765409,20.0121667 C80.4266978,20.0121667 82.3118254,22.3730344 82.3118254,25.1020435 C82.3118254,26.2499019 82.0301818,26.9647296 80.9682597,26.9647296 L75.2264991,26.9647296 C75.6165075,27.9393757 76.5480778,28.3075172 77.8699182,28.3075172 C78.4763942,28.3075172 79.1632277,28.2729794 80.058153,27.8093357 C80.2303848,27.720113 80.3400583,27.7661634 80.4484231,27.9393757 L81.4449075,29.3255972 C81.5315469,29.4553756 81.5532722,29.6288495 81.3365428,29.8235171 C80.4484231,30.7335357 79.0833938,31.1448494 77.5665493,31.1448494 C74.0781994,31.1448494 71.6729734,28.8059604 71.6729734,25.5353358 L71.6729734,25.5353358 Z M59.7565168,25.5785081 C59.7565168,22.4596405 62.1180304,20.0121667 65.3247367,20.0121667 C67.9684175,20.0121667 70.0728921,21.5807583 70.6770124,24.1708313 C70.7377386,24.4316963 70.6118365,24.5604281 70.3951071,24.5604281 L67.4051303,24.5604281 C67.2318514,24.5604281 67.0797743,24.4738219 67.0148602,24.2788927 C66.6465771,23.564065 65.910011,23.3476805 65.3247367,23.3476805 C64.198424,23.3476805 63.2448667,24.1708313 63.2448667,25.5785081 C63.2448667,26.9864465 64.198424,27.8093357 65.3247367,27.8093357 C65.910011,27.8093357 66.6465771,27.5929511 67.0148602,26.8778618 C67.0797743,26.6829326 67.2318514,26.5963264 67.4051303,26.5963264 L70.3951071,26.5963264 C70.6118365,26.5963264 70.7421883,26.7266281 70.6770124,27.0081635 C70.0736774,29.6079175 67.9466922,31.1448494 65.3247367,31.1448494 C62.1180304,31.1448494 59.7565168,28.6976373 59.7565168,25.5785081 L59.7565168,25.5785081 Z M47.7316955,25.5785081 C47.7316955,22.4596405 50.0934709,20.0121667 53.3001772,20.0121667 C55.9438579,20.0121667 58.0480708,21.5807583 58.6521911,24.1708313 C58.713179,24.4316963 58.5870152,24.5604281 58.3705475,24.5604281 L55.380309,24.5604281 C55.2070301,24.5604281 55.0552147,24.4738219 54.9903006,24.2788927 C54.6220175,23.564065 53.8851897,23.3476805 53.3001772,23.3476805 C52.1736027,23.3476805 51.2203071,24.1708313 51.2203071,25.5785081 C51.2203071,26.9864465 52.1736027,27.8093357 53.3001772,27.8093357 C53.8851897,27.8093357 54.6220175,27.5929511 54.9903006,26.8778618 C55.0552147,26.6829326 55.2070301,26.5963264 55.380309,26.5963264 L58.3705475,26.5963264 C58.5870152,26.5963264 58.7176288,26.7266281 58.6521911,27.0081635 C58.0491178,29.6079175 55.9221326,31.1448494 53.3001772,31.1448494 C50.0934709,31.1448494 47.7316955,28.6976373 47.7316955,25.5785081 L47.7316955,25.5785081 Z M40.8856092,27.8527696 C42.1422737,27.8527696 43.0523805,26.9212957 43.0523805,25.5570528 C43.0523805,24.2357205 42.1422737,23.3042466 40.8856092,23.3042466 C39.628683,23.3042466 38.6753874,24.2140035 38.6753874,25.5785081 C38.6753874,26.9212957 39.628683,27.8527696 40.8856092,27.8527696 L40.8856092,27.8527696 Z M35.1218616,25.5785081 C35.1218616,22.4596405 37.1585428,20.0121667 40.9505234,20.0121667 C44.7422422,20.0121667 46.6490951,22.5030744 46.6490951,25.4270127 L46.6490951,30.5386065 C46.6490951,30.7335357 46.4540909,30.885031 46.2590867,30.885031 L43.6371313,30.885031 C43.4421271,30.885031 43.2905735,30.7335357 43.2905735,30.5386065 L43.2688482,29.6720218 C42.6406468,30.6034956 41.4054459,31.1448494 40.0404166,31.1448494 C37.1585428,31.1448494 35.1218616,28.7190926 35.1218616,25.5785081 L35.1218616,25.5785081 Z" id="Fill-3" fill="#FA6400"></path>
                <path d="M26.6359825,18.1503964 C26.4012225,25.3635626 20.4278127,31.1264031 13.1317772,31.0248829 C6.09094855,30.9270258 0.0992161897,24.9375965 0.00132147551,17.8994741 C-0.100237747,10.6059813 5.66481862,4.63512912 12.8807584,4.40045933 C13.1213072,4.39284126 13.3215464,4.58567728 13.3215464,4.82639525 L13.3215464,8.93796279 C13.3215464,9.16062691 13.1391062,9.35084644 12.9163565,9.36131244 C8.35718501,9.57874356 4.75471188,13.4461917 4.9690856,18.1046077 C5.16618378,22.3865093 8.64301664,25.8620058 12.9265648,26.0590282 C17.586772,26.2733196 21.4557072,22.6722311 21.6732219,18.114812 C21.6836919,17.8921479 21.8739846,17.7097779 22.0967343,17.7097779 L26.2098828,17.7097779 C26.4506934,17.7097779 26.6436035,17.9096784 26.6359825,18.1503964" id="Fill-5" fill="#2B4361"></path>
                <path d="M25.5013503,12.8348989 C25.5016119,14.0015961 24.5781559,15.3001648 23.0398478,15.3004265 C21.8703463,15.3006881 20.5736339,14.3747089 20.5733721,12.8401319 C20.5731104,11.673173 21.4965664,10.3748659 23.0348746,10.3743425 C24.2020204,10.374081 25.5010884,11.297182 25.5013503,12.8348989" id="Fill-7" fill="#FA6400"></path>
                <path d="M20.7873271,8.04385253 C20.7875888,9.57162668 19.5073668,10.5051938 18.3216367,10.5054554 C16.7935368,10.5057171 15.8596108,9.22598707 15.859349,8.04097438 C15.8590873,6.51320024 17.1393094,5.57963317 18.3250394,5.57937136 C19.8625623,5.57884822 20.7870653,6.86590439 20.7873271,8.04385253" id="Fill-9" fill="#FA6400"></path>
            </g>
        </g>
    </g>
</svg>