<svg xmlns="http://www.w3.org/2000/svg"
    xmlns:xlink="http://www.w3.org/1999/xlink" width="100%" height="100%" viewBox="0 0 60 80" version="1.1">
    <title>icon/calculator-fontawesome-sky400</title>
    <g id="desktop-r2" stroke="none" stroke-width="1" fill="none" fill-rule="evenodd">
        <g id="Artboard" transform="translate(-224.000000, -599.000000)" fill="currentColor" fill-rule="nonzero">
            <path d="M274,599 L234,599 C228.478126,599 224,603.478126 224,609 L224,669 C224,674.521874 228.478126,679 234,679 L274,679 C279.521874,679 284,674.521874 284,669 L284,609 C284,603.478126 279.515623,599 274,599 Z M279,669 C279,671.756252 276.756252,674 274,674 L234,674 C231.24375,674 229,671.756252 229,669 L229,624 L279,624 L279,669 Z M279,619 L229,619 L229,609 C229,606.243748 231.24375,604 234,604 L274,604 C276.756252,604 279,606.243748 279,609 L279,619 Z M236.5,666.5 L256.5,666.5 C257.881874,666.5 259,665.381874 259,664 C259,662.618126 257.881874,661.5 256.5,661.5 L236.5,661.5 C235.118751,661.5 234,662.625002 234,664 C234,665.374998 235.118751,666.5 236.5,666.5 Z M269,667.75 C271.070312,667.75 272.75,666.070312 272.75,664 C272.75,661.929688 271.070312,660.25 269,660.25 C266.929688,660.25 265.25,661.929688 265.25,664 C265.25,666.070312 266.921877,667.75 269,667.75 Z M269,652.75 C271.070312,652.75 272.75,651.070312 272.75,649 C272.75,646.929688 271.078123,645.25 269,645.25 C266.921877,645.25 265.25,646.921877 265.25,649 C265.25,651.078123 266.921877,652.75 269,652.75 Z M269,637.75 C271.070312,637.75 272.75,636.070312 272.75,634 C272.75,631.929688 271.078123,630.25 269,630.25 C266.921877,630.25 265.25,631.921875 265.25,634 C265.25,636.078125 266.921877,637.75 269,637.75 Z M254,652.75 C256.070312,652.75 257.75,651.070312 257.75,649 C257.75,646.929688 256.078125,645.25 254,645.25 C251.921875,645.25 250.25,646.921877 250.25,649 C250.25,651.078123 251.921875,652.75 254,652.75 Z M254,637.75 C256.070312,637.75 257.75,636.070312 257.75,634 C257.75,631.929688 256.078125,630.25 254,630.25 C251.921875,630.25 250.25,631.921875 250.25,634 C250.25,636.078125 251.921875,637.75 254,637.75 Z M239,652.75 C241.070312,652.75 242.75,651.070312 242.75,649 C242.75,646.929688 241.078125,645.25 239,645.25 C236.921875,645.25 235.25,646.921877 235.25,649 C235.25,651.078123 236.929688,652.75 239,652.75 Z M239,637.75 C241.070312,637.75 242.75,636.070312 242.75,634 C242.75,631.929688 241.078125,630.25 239,630.25 C236.921875,630.25 235.25,631.921875 235.25,634 C235.25,636.078125 236.929688,637.75 239,637.75 Z" id="icon/calculator-fontawesome-sky400"/>
        </g>
    </g>
</svg>