<?xml version="1.0" encoding="UTF-8"?>
<svg width="20px" height="21px" viewBox="0 0 21 18" version="1.1" xmlns="http://www.w3.org/2000/svg" xmlns:xlink="http://www.w3.org/1999/xlink">
    <g id="desktop-r2" stroke="none" stroke-width="1" fill="none" fill-rule="evenodd">
        <g id="Artboard" transform="translate(-629.000000, -631.000000)" fill="currentColor" fill-rule="nonzero">
            <path d="M643.742188,633.75 L647.492188,633.75 L647.492188,646.25 L643.742188,646.25 L642.492188,646.25 L642.492188,648.75 L643.742188,648.75 L648.742188,648.75 L649.992188,648.75 L649.992188,647.5 L649.992188,632.5 L649.992188,631.25 L648.742188,631.25 L643.742188,631.25 L642.492188,631.25 L642.492188,633.75 L643.742188,633.75 Z M643.375,640.882813 L644.261718,640 L643.378906,639.117187 L638.378906,634.117187 L637.492188,633.230469 L635.722656,635 L636.605469,635.882813 L639.472656,638.75 L631.242188,638.75 L629.992188,638.75 L629.992188,641.25 L631.242188,641.25 L639.472656,641.25 L636.605468,644.117187 L635.722656,645 L637.492188,646.769531 L638.375,645.886718 L643.375,640.886718 L643.375,640.882813 Z" id="icon/login-fontawesome-indigo700"></path>
        </g>
    </g>
</svg>
