<svg width="52" height="52" viewBox="0 0 52 52" fill="none" xmlns="http://www.w3.org/2000/svg">
<path d="M22.4508 3.83906C22.4942 3.68672 22.5919 3.55469 22.7112 3.45312C23.7858 3.32109 24.882 3.25 26 3.25C27.118 3.25 28.2142 3.32109 29.2888 3.45312C29.4081 3.55469 29.495 3.68672 29.5492 3.83906L31.0362 8.68359C31.4161 9.9125 32.3604 10.8266 33.4784 11.3344C34.3033 11.7 35.0848 12.1266 35.8337 12.6039C36.854 13.2641 38.189 13.5688 39.5132 13.2641L44.7448 12.0453C44.9076 12.0047 45.0704 12.0148 45.2224 12.0656C45.8085 12.7664 46.3512 13.5078 46.8396 14.2797L47.3063 15.0312C47.7622 15.793 48.1638 16.5852 48.522 17.3977C48.4894 17.55 48.4135 17.6922 48.2941 17.8039L44.5386 21.4297C43.5943 22.3438 43.2144 23.5727 43.3121 24.7305C43.3446 25.1469 43.3664 25.5734 43.3664 26C43.3664 26.4266 43.3446 26.8531 43.3121 27.2695C43.2144 28.4273 43.5943 29.6562 44.5386 30.5703L48.2832 34.1961C48.4026 34.3078 48.4786 34.45 48.5111 34.6023C48.153 35.4148 47.7514 36.207 47.2955 36.9789L46.8396 37.7203C46.3403 38.4922 45.7976 39.2234 45.2224 39.9344C45.0704 39.9852 44.9076 39.9852 44.7448 39.9547L39.5132 38.7359C38.189 38.4312 36.8648 38.7359 35.8337 39.3961C35.0848 39.8734 34.3033 40.3 33.4784 40.6656C32.3604 41.1633 31.4053 42.0875 31.0362 43.3164L29.5492 48.1609C29.5058 48.3133 29.4081 48.4453 29.2888 48.5469C28.2142 48.6789 27.118 48.75 26 48.75C24.882 48.75 23.7858 48.6789 22.7112 48.5469C22.5919 48.4453 22.505 48.3133 22.4508 48.1609L20.9638 43.3164C20.5839 42.0875 19.6396 41.1734 18.5216 40.6656C17.6967 40.3 16.9152 39.8734 16.1663 39.3961C15.146 38.7359 13.811 38.4312 12.4868 38.7359L7.25519 39.9547C7.09238 39.9953 6.92957 39.9852 6.77762 39.9344C6.1915 39.2234 5.6488 38.4922 5.14952 37.7203L4.69365 36.9789C4.23779 36.2172 3.83619 35.425 3.47801 34.6023C3.51057 34.45 3.58655 34.3078 3.70594 34.1961L7.46142 30.5703C8.40571 29.6562 8.7856 28.4273 8.68792 27.2695C8.65535 26.8531 8.63365 26.4266 8.63365 26C8.63365 25.5734 8.65535 25.1469 8.68792 24.7305C8.7856 23.5727 8.40571 22.3438 7.46142 21.4297L3.7168 17.7937C3.5974 17.682 3.52142 17.5398 3.48886 17.3875C3.84704 16.575 4.24864 15.7828 4.70451 15.0109L5.16037 14.2695C5.65966 13.4977 6.20236 12.7664 6.78847 12.0555C6.94043 12.0047 7.10324 12.0047 7.26605 12.0352L12.4977 13.2539C13.8218 13.5586 15.146 13.2539 16.1772 12.5938C16.9261 12.1164 17.7076 11.6898 18.5325 11.3242C19.6504 10.8266 20.6056 9.90234 20.9746 8.67344L22.4616 3.82891L22.4508 3.83906ZM26 0C24.589 0 23.1888 0.101563 21.8321 0.294531C21.6476 0.325 21.463 0.375781 21.2894 0.457031C20.2582 0.954688 19.4551 1.83828 19.1186 2.94531L17.6316 7.78984C17.5665 8.01328 17.3602 8.24687 17.0238 8.39922C16.0361 8.83594 15.0918 9.35391 14.2017 9.92266C13.8978 10.1156 13.5722 10.1664 13.3334 10.1055L8.1018 8.88672C6.91872 8.6125 5.70307 8.82578 4.72621 9.40469C4.56341 9.49609 4.4223 9.61797 4.30291 9.76016C3.53228 10.6641 2.81592 11.6086 2.17553 12.6039L2.16468 12.6344L1.6871 13.4062L1.67625 13.4367C1.09013 14.432 0.569144 15.4578 0.124131 16.5242C0.059007 16.6867 0.0155911 16.8594 0.00473711 17.032C-0.0495327 18.1289 0.362918 19.2258 1.22038 20.0586L4.965 23.6844C5.13867 23.857 5.25806 24.1313 5.2255 24.4766C5.18208 24.9844 5.16037 25.4922 5.16037 26C5.16037 26.5078 5.18208 27.0258 5.2255 27.5234C5.25806 27.8687 5.13867 28.1531 4.965 28.3156L1.22038 31.9516C0.362918 32.7844 -0.0495327 33.8812 0.00473711 34.9781C0.0155911 35.1508 0.059007 35.3234 0.124131 35.4859C0.569144 36.5523 1.09013 37.5781 1.67625 38.5734L1.6871 38.6039L2.16468 39.3758L2.17553 39.4062C2.81592 40.4016 3.52142 41.3563 4.30291 42.2602C4.4223 42.4023 4.56341 42.5242 4.72621 42.6156C5.70307 43.1945 6.91872 43.4078 8.1018 43.1336L13.3334 41.9148C13.5722 41.8539 13.8978 41.9047 14.2017 42.0977C15.0918 42.6766 16.0361 43.1844 17.0238 43.6211C17.3602 43.7734 17.5556 44.007 17.6316 44.2305L19.1186 49.0547C19.4551 50.1516 20.2582 51.0352 21.2894 51.543C21.463 51.6242 21.6367 51.6852 21.8321 51.7055C23.1888 51.8984 24.589 52 26 52C27.411 52 28.8112 51.8984 30.1679 51.7055C30.3524 51.675 30.537 51.6242 30.7106 51.543C31.7418 51.0453 32.5449 50.1617 32.8814 49.0547L34.3684 44.2102C34.4335 43.9867 34.6398 43.7531 34.9762 43.6008C35.9639 43.1641 36.9082 42.6461 37.7983 42.0773C38.1022 41.8844 38.4278 41.8336 38.6666 41.8945L43.8982 43.1133C45.0813 43.3875 46.2969 43.1844 47.2738 42.5953C47.4366 42.5039 47.5777 42.382 47.6971 42.2398C48.4677 41.3359 49.1732 40.3914 49.8136 39.3961L49.8245 39.3656L50.3129 38.5938L50.3238 38.5633C50.9099 37.5781 51.4309 36.5422 51.8759 35.4758C51.941 35.3133 51.9844 35.1406 51.9953 34.968C52.0495 33.8711 51.6371 32.7742 50.7796 31.9414L47.035 28.3156C46.8613 28.143 46.7419 27.8687 46.7745 27.5234C46.8179 27.0156 46.8396 26.5078 46.8396 26C46.8396 25.4922 46.8179 24.9742 46.7745 24.4766C46.7419 24.1313 46.8613 23.8469 47.035 23.6844L50.7796 20.0586C51.6371 19.2258 52.0495 18.1289 51.9953 17.032C51.9844 16.8594 51.941 16.6867 51.8759 16.5242C51.4309 15.4578 50.9099 14.432 50.3238 13.4367L50.3129 13.4062L49.8353 12.6344L49.8245 12.6039C49.1841 11.6086 48.4786 10.6539 47.7079 9.76016C47.5886 9.61797 47.4474 9.49609 47.2846 9.40469C46.3078 8.82578 45.0921 8.6125 43.9091 8.88672L38.6774 10.1055C38.4387 10.1664 38.113 10.1156 37.8091 9.92266C36.9191 9.34375 35.9748 8.83594 34.9871 8.39922C34.6506 8.24687 34.4552 8.01328 34.3793 7.78984L32.8814 2.94531C32.5449 1.84844 31.7418 0.964844 30.7106 0.457031C30.537 0.375781 30.3633 0.314844 30.1679 0.294531C28.8112 0.101563 27.411 0 26 0ZM19.9218 26C19.9218 24.4916 20.5622 23.0449 21.702 21.9783C22.8419 20.9117 24.388 20.3125 26 20.3125C27.612 20.3125 29.1581 20.9117 30.298 21.9783C31.4378 23.0449 32.0782 24.4916 32.0782 26C32.0782 27.5084 31.4378 28.9551 30.298 30.0217C29.1581 31.0883 27.612 31.6875 26 31.6875C24.388 31.6875 22.8419 31.0883 21.702 30.0217C20.5622 28.9551 19.9218 27.5084 19.9218 26ZM35.5515 26C35.5515 23.6296 34.5452 21.3563 32.7539 19.6802C30.9627 18.0041 28.5332 17.0625 26 17.0625C23.4668 17.0625 21.0373 18.0041 19.2461 19.6802C17.4548 21.3563 16.4485 23.6296 16.4485 26C16.4485 28.3704 17.4548 30.6437 19.2461 32.3198C21.0373 33.9959 23.4668 34.9375 26 34.9375C28.5332 34.9375 30.9627 33.9959 32.7539 32.3198C34.5452 30.6437 35.5515 28.3704 35.5515 26Z" fill="#14A1C8"/>
</svg>
