<?xml version="1.0" encoding="UTF-8"?>
<svg width="18px" height="25px" viewBox="0 0 18 25" version="1.1" xmlns="http://www.w3.org/2000/svg" xmlns:xlink="http://www.w3.org/1999/xlink">
    <title>icon/gd/indigo/700</title>
    <g id="Symbols" stroke="none" stroke-width="1" fill="none" fill-rule="evenodd">
        <g id="footer/desktop-v2" transform="translate(-623.000000, -352.000000)" fill="#2B4361">
            <g id="Group-18" transform="translate(365.000000, 345.000000)">
                <g id="Group-17" transform="translate(0.000000, 7.000000)">
                    <g id="icon/gd/indigo/700" transform="translate(258.000000, 0.000000)">
                        <path d="M14.3958282,21.4255528 L4.31873552e-05,21.4255528 C0.00165551528,23.3990086 1.61432894,24.998401 3.60417193,25 L14.3958282,25 C16.3856712,24.998401 17.9983447,23.3990086 17.9999788,21.4255528 L17.9999788,6.75998264 C18.0012814,6.68648346 17.9422587,6.6258909 17.8681492,6.62458697 C17.8661914,6.62458697 17.8642911,6.62458697 17.8623333,6.62458697 L14.5328761,6.62458697 C14.4591121,6.6226928 14.3977861,6.68048702 14.3958282,6.75358644 C14.3957707,6.75592791 14.3957707,6.75821226 14.3958282,6.76055373 L14.3958282,21.4261239 L14.3958282,21.4255528 Z M14.3958282,0 C16.3856712,0.00159904971 17.9983447,1.60099141 17.999957,3.57444719 L3.60417193,3.57444719 L3.60417193,18.2206003 C3.60578426,18.2940995 3.54704946,18.3549205 3.47293996,18.3565671 C3.47080938,18.3565671 3.4686788,18.3565671 3.46654823,18.3565671 L0.137091061,18.3565671 C0.0633270585,18.3584613 0.00200101412,18.300667 0,18.2275676 C0,18.2252262 0,18.2229418 0,18.2206003 L0,3.57444719 C0.00165551528,1.60099141 1.61432894,0.00159904971 3.60417193,0 L14.3958282,0 Z" id="Fill-1"></path>
                    </g>
                </g>
            </g>
        </g>
    </g>
</svg>