<svg width="53" height="46" viewBox="0 0 53 46" fill="none" xmlns="http://www.w3.org/2000/svg">
<path d="M3.32508 21.3571C3.32508 11.9723 13.0324 3.28571 26.5067 3.28571C39.981 3.28571 49.6883 11.9723 49.6883 21.3571C49.6883 30.742 39.981 39.4286 26.5067 39.4286C23.195 39.4286 19.9869 38.8228 16.8304 37.7652C15.8059 37.4263 14.6882 37.5804 13.8086 38.1964C12.2148 39.2951 10.559 40.25 8.79967 41.0098L9.45165 42.5089L8.78932 40.9996C7.70268 41.4719 6.5643 41.8826 5.40522 42.1804C5.45696 42.0879 5.51905 41.9955 5.5708 41.9134C7.0507 39.4799 7.90966 36.8616 8.23048 34.079C8.33397 33.1344 8.01315 32.2616 7.46466 31.625C4.92917 28.6063 3.32508 25.1665 3.32508 21.3571ZM26.5067 0C11.863 0 0.0134179 9.56964 0.0134179 21.3571C0.0134179 26.142 2.04181 30.3004 4.91882 33.7299C4.91882 33.7402 4.92917 33.7402 4.92917 33.7505C4.66009 36.071 3.94602 38.217 2.72484 40.2295C2.05216 41.3384 1.32773 42.3652 0.47912 43.2071C0.0134179 43.6795 -0.131467 44.388 0.127256 44.9938C0.38598 45.5996 0.986219 46 1.6589 46C4.62905 46 7.61989 45.0862 10.1036 44.0183C12.0906 43.1558 13.9431 42.0982 15.6817 40.8866C15.7024 40.8763 15.7335 40.8661 15.7542 40.8763C19.2107 42.0263 22.7811 42.7143 26.5067 42.7143C41.1505 42.7143 53 33.1446 53 21.3571C53 9.56964 41.1505 0 26.5067 0ZM18.2276 19.4371C18.2276 17.7737 19.5833 16.4286 21.2598 16.4286C22.067 16.4286 22.8328 16.7469 23.402 17.3116L25.3373 19.2317C25.9789 19.8683 27.0345 19.8683 27.6761 19.2317L29.6114 17.3116C30.1806 16.7469 30.9464 16.4286 31.7536 16.4286C33.4302 16.4286 34.7859 17.7737 34.7859 19.4371C34.7859 20.2379 34.465 20.9978 33.8959 21.5625L26.5067 28.8938L19.1176 21.5625C18.5484 20.9978 18.2276 20.2379 18.2276 19.4371ZM21.2598 13.1429C17.7619 13.1429 14.9159 15.9563 14.9159 19.4371C14.9159 21.1004 15.5886 22.7022 16.7684 23.883L25.3269 32.3746C25.9686 33.0112 27.0242 33.0112 27.6658 32.3746L36.2244 23.883C37.4145 22.7022 38.0768 21.1004 38.0768 19.4371C38.0768 15.9665 35.2412 13.1429 31.7329 13.1429C30.0564 13.1429 28.442 13.8103 27.2518 14.9808L26.486 15.7406L25.7202 14.9808C24.5301 13.8 22.9156 13.1429 21.2391 13.1429H21.2598Z" fill="#14A1C8"/>
</svg>
