<?xml version="1.0" encoding="UTF-8"?>
<svg width="24px" height="24px" viewBox="0 0 24 24" version="1.1" xmlns="http://www.w3.org/2000/svg" xmlns:xlink="http://www.w3.org/1999/xlink">
    <title>icon Chat</title>
    <g id="atom/icon/light/message-dots" stroke="none" stroke-width="1" fill="none" fill-rule="evenodd">
        <g id="message-dots-light" fill="#000000" fill-rule="nonzero">
            <path d="M9,19.5008397 C9,18.6711165 8.3296875,18.0007751 7.5,18.0007751 L3,18.0007751 C2.1703125,18.0007751 1.5,17.3304338 1.5,16.5007105 L1.5,3.00012919 C1.5,2.17040596 2.1703125,1.5000646 3,1.5000646 L21,1.5000646 C21.8296875,1.5000646 22.5,2.17040596 22.5,3.00012919 L22.5,16.5007105 C22.5,17.3304338 21.8296875,18.0007751 21,18.0007751 L14.4984375,18.0007751 C14.175,18.0007751 13.85625,18.1039046 13.5984375,18.3007881 L9,21.7509366 L9,19.5008397 Z M3,0 C1.3453125,0 0,1.34537043 0,3.00012919 L0,16.5007105 C0,18.1554693 1.3453125,19.5008397 3,19.5008397 L6,19.5008397 L7.5,19.5008397 L7.5,21.0009043 L7.5,23.2510012 C7.5,23.536951 7.659375,23.7947746 7.9125,23.9213426 C8.165625,24.0479105 8.4703125,24.0197843 8.7,23.8510271 L14.4984375,19.5008397 L21,19.5008397 C22.6546875,19.5008397 24,18.1554693 24,16.5007105 L24,3.00012919 C24,1.34537043 22.6546875,0 21,0 L3,0 Z M6,10.8754683 C6.62132034,10.8754683 7.125,10.371767 7.125,9.75041987 C7.125,9.12907277 6.62132034,8.62537142 6,8.62537142 C5.37867966,8.62537142 4.875,9.12907277 4.875,9.75041987 C4.875,10.371767 5.37867966,10.8754683 6,10.8754683 Z M12,10.8754683 C12.6213203,10.8754683 13.125,10.371767 13.125,9.75041987 C13.125,9.12907277 12.6213203,8.62537142 12,8.62537142 C11.3786797,8.62537142 10.875,9.12907277 10.875,9.75041987 C10.875,10.371767 11.3786797,10.8754683 12,10.8754683 Z M19.125,9.75041987 C19.125,9.12907277 18.6213203,8.62537142 18,8.62537142 C17.3786797,8.62537142 16.875,9.12907277 16.875,9.75041987 C16.875,10.371767 17.3786797,10.8754683 18,10.8754683 C18.6213203,10.8754683 19.125,10.371767 19.125,9.75041987 Z" id="Shape"></path>
        </g>
    </g>
</svg>