<?xml version="1.0" encoding="UTF-8"?>
<svg width="25px" height="25px" viewBox="0 0 25 25" version="1.1"
    xmlns="http://www.w3.org/2000/svg"
    xmlns:xlink="http://www.w3.org/1999/xlink">
    <title>icon/ig/indigo/700</title>
    <g id="Symbols" stroke="none" stroke-width="1" fill="none" fill-rule="evenodd">
        <g id="footer/desktop-v2" transform="translate(-705.000000, -352.000000)" fill="currentColor">
            <g id="Group-18" transform="translate(365.000000, 345.000000)">
                <g id="Group-17" transform="translate(0.000000, 7.000000)">
                    <g id="icon/ig/indigo/700" transform="translate(340.000000, 0.000000)">
                        <path d="M17.6085118,1.83266775 C20.6555001,1.83266775 23.1337574,4.2663398 23.1337574,7.25851093 L23.1337574,17.7414891 C23.1337574,20.7336602 20.6555001,23.1673323 17.6085118,23.1673323 L7.39148816,23.1673323 C4.34449992,23.1673323 1.86624255,20.7336602 1.86624255,17.7414891 L1.86624255,7.25851093 C1.86624255,4.2663398 4.34449992,1.83266775 7.39148816,1.83266775 L17.6085118,1.83266775 Z M25,17.7414891 L25,7.25851093 C25,3.25609901 21.6842487,0 17.6085118,0 L7.39148816,0 C3.31575133,0 0,3.25609901 0,7.25851093 L0,17.7414891 C0,21.743901 3.31575133,25 7.39148816,25 L17.6085118,25 C21.6842487,25 25,21.743901 25,17.7414891 L25,17.7414891 Z M19.3408761,12.4836899 C19.3408761,16.1618758 16.3039539,19.144162 12.558383,19.144162 C8.81281205,19.144162 5.77588984,16.1618758 5.77588984,12.4836899 C5.77588984,8.80451544 8.81281205,5.82321775 12.558383,5.82321775 C16.3039539,5.82321775 19.3408761,8.80451544 19.3408761,12.4836899 L19.3408761,12.4836899 Z M12.558383,8.06709897 C10.0750926,8.06709897 8.06087937,10.0440868 8.06087937,12.4836899 C8.06087937,14.9223044 10.0750926,16.9002807 12.558383,16.9002807 C15.04268,16.9002807 17.0558866,14.9223044 17.0558866,12.4836899 C17.0558866,10.0440868 15.04268,8.06709897 12.558383,8.06709897 L12.558383,8.06709897 Z M21.0853197,5.63738089 C21.0853197,6.49539362 20.376671,7.19030485 19.5029393,7.19030485 C18.6302142,7.19030485 17.9215655,6.49539362 17.9215655,5.63738089 C17.9215655,4.77936815 18.6302142,4.08346843 19.5029393,4.08346843 C20.376671,4.08346843 21.0853197,4.77936815 21.0853197,5.63738089 L21.0853197,5.63738089 Z" id="Fill-6"></path>
                    </g>
                </g>
            </g>
        </g>
    </g>
</svg>