<?xml version="1.0" encoding="UTF-8"?>
<svg width="25px" height="25px" viewBox="0 0 25 25" version="1.1" xmlns="http://www.w3.org/2000/svg" xmlns:xlink="http://www.w3.org/1999/xlink">
    <title>icon/in/indigo/700</title>
    <g id="Symbols" stroke="none" stroke-width="1" fill="none" fill-rule="evenodd">
        <g id="footer/desktop-v2" transform="translate(-450.000000, -352.000000)" fill="#2B4361">
            <g id="Group-18" transform="translate(365.000000, 345.000000)">
                <g id="Group-17" transform="translate(0.000000, 7.000000)">
                    <g id="icon/in/indigo/700" transform="translate(85.000000, 0.000000)">
                        <path d="M21.3043037,21.3024238 L17.5964271,21.3024238 L17.5964271,15.5007917 C17.5964271,14.1173724 17.5730816,12.3370955 15.6699147,12.3370955 C13.7403573,12.3370955 13.4460008,13.8453575 13.4460008,15.4013235 L13.4460008,21.3024238 L9.74218433,21.3024238 L9.74218433,9.37233567 L13.2967925,9.37233567 L13.2967925,11.0034103 L13.3475436,11.0034103 C13.8418595,10.0655678 15.0517661,9.07596119 16.8564758,9.07596119 C20.6100284,9.07596119 21.3043037,11.5464252 21.3043037,14.7598555 L21.3043037,21.3024238 Z M5.56130735,7.74227599 C4.37068616,7.74227599 3.41047503,6.77905891 3.41047503,5.591531 C3.41047503,4.40501807 4.37068616,3.44180098 5.56130735,3.44180098 C6.74786845,3.44180098 7.71112464,4.40501807 7.71112464,5.591531 C7.71112464,6.77905891 6.74786845,7.74227599 5.56130735,7.74227599 L5.56130735,7.74227599 Z M3.70483151,21.3024238 L7.41676817,21.3024238 L7.41676817,9.37233567 L3.70483151,9.37233567 L3.70483151,21.3024238 Z M23.1506293,0 L1.84429557,0 C0.827243199,0 0,0.806909991 0,1.80260647 L0,23.1953636 C0,24.19106 0.827243199,25 1.84429557,25 L23.1506293,25 C24.1707268,25 25,24.19106 25,23.1953636 L25,1.80260647 C25,0.806909991 24.1707268,0 23.1506293,0 L23.1506293,0 Z" id="Fill-1"></path>
                    </g>
                </g>
            </g>
        </g>
    </g>
</svg>