<?xml version="1.0" encoding="UTF-8"?>
<svg width="21px" height="18px" viewBox="0 0 23 20" version="1.1"
    xmlns="http://www.w3.org/2000/svg"
    xmlns:xlink="http://www.w3.org/1999/xlink">
    <title>icon/person-circle-check-indigo</title>
    <g id="desktop-r2" stroke="none" stroke-width="1" fill="none" fill-rule="evenodd">
        <g id="Artboard" transform="translate(-900.000000, -920.000000)" fill="currentColor" fill-rule="nonzero">
            <g id="icon/person-circle-check-indigo" transform="translate(900.000000, 920.000000)">
                <path d="M8.11718762,1.875 C8.11718762,2.91015625 7.27734387,3.75 6.24218762,3.75 C5.20703137,3.75 4.36718762,2.91015625 4.36718762,1.875 C4.36718762,0.83984375 5.20703137,0 6.24218762,0 C7.27734387,0 8.11718762,0.83984375 8.11718762,1.875 Z M3.56249988,5 L4.24609363,5 L8.23828161,5 L8.92187536,5 L9.28906262,5.57812452 L11.8828124,9.64062512 C11.2773436,10.277344 10.7890624,11.0351562 10.4648441,11.867187 L10.3750008,11.9218743 L9.05468822,9.85156178 L9.05468822,18.75 L9.05468822,20 L6.55468762,20 L6.55468762,18.75 L6.55468762,13.75 L5.92968762,13.75 L5.92968762,18.75 L5.92968762,20 L3.42968762,20 L3.42968762,18.75 L3.42968762,9.85156238 L2.109375,11.9218755 L0,10.5781245 L3.19531262,5.57812452 L3.56250048,5 L3.56249988,5 Z M22.4921882,14.375 C22.4921882,17.4804688 19.972657,20 16.8671882,20 C13.7617195,20 11.2421882,17.4804688 11.2421882,14.375 C11.2421882,11.2695312 13.7617195,8.75 16.8671882,8.75 C19.972657,8.75 22.4921882,11.2695312 22.4921882,14.375 Z M19.937501,13.125 L19.0546882,12.2421873 L18.6132824,12.683593 L16.2421882,15.0546873 L15.121094,13.933593 L14.6796882,13.4921873 L13.7968755,14.375 L14.2382812,14.8164058 L15.8007812,16.3789058 L16.2421882,16.8203127 L16.683594,16.378907 L19.496094,13.566407 L19.937501,13.125 Z" id="Shape"></path>
            </g>
        </g>
    </g>
</svg>