<svg xmlns="http://www.w3.org/2000/svg" xmlns:xlink="http://www.w3.org/1999/xlink" width="80px" height="80px" viewBox="0 0 80 80" version="1.1"><title>icon/question-fontawesome-sky400</title><g id="desktop-r2" stroke="none" stroke-width="1" fill="none" fill-rule="evenodd"><g id="Artboard" transform="translate(-531.000000, -599.000000)" fill="#40ABDE" fill-rule="nonzero"><path d="M571,599 C548.906251,599 531,616.906251 531,639 C531,661.093749 548.906251,679 571,679 C593.093749,679 611,661.093749 611,639 C611,616.906251 593.093749,599 571,599 Z M571,674 C551.703125,674 536,658.296875 536,639 C536,619.703125 551.703125,604 571,604 C590.296875,604 606,619.703125 606,639 C606,658.296875 590.296875,674 571,674 Z M568.5,652.75 C566.429688,652.75 564.75,654.429688 564.75,656.5 C564.75,658.570312 566.429688,660.25 568.5,660.25 C570.570312,660.25 572.25,658.570312 572.25,656.5 C572.25,654.429688 570.578125,652.75 568.5,652.75 Z M575.625001,619 L566.374999,619 C560.65625,619 556,623.656248 556,629.374999 L556,630.875 C556,632.256874 557.118126,633.375 558.5,633.375 C559.881874,633.375 561,632.25 561,630.875 L561,629.374999 C561,626.406249 563.406249,624 566.374999,624 L575.632812,624 C578.593751,624 581,626.406249 581,629.374999 C581,631.324998 579.940468,633.124999 578.334375,634.018749 L568.890625,638.734375 C567.109376,639.734377 566,641.609377 566,643.656248 L566,646.5 C566,647.874998 567.125,649 568.5,649 C569.875,649 571,647.874998 571,646.5 L571,643.656248 C571,643.429216 571.12208,643.219217 571.224686,643.160624 L580.663749,638.438748 C583.953124,636.609375 586,633.140625 586,629.374999 C586,623.656248 581.343752,619 575.625001,619 Z" id="icon/question-fontawesome-sky400"/></g></g></svg>