<?xml version="1.0" encoding="UTF-8"?>
<svg width="25px" height="22px" viewBox="0 0 25 22" version="1.1"
    xmlns="http://www.w3.org/2000/svg"
    xmlns:xlink="http://www.w3.org/1999/xlink">
    <title>icon/vm/indigo/700</title>
    <g id="Symbols" stroke="none" stroke-width="1" fill="none" fill-rule="evenodd">
        <g id="footer/desktop-v2" transform="translate(-535.000000, -354.000000)" fill="currentColor">
            <g id="Group-18" transform="translate(365.000000, 345.000000)">
                <g id="Group-17" transform="translate(0.000000, 7.000000)">
                    <g id="icon/vm/indigo/700" transform="translate(170.000000, 2.000000)">
                        <path d="M8.87216774,20.4687571 C9.87656409,21.9194083 11.1971593,22.3393336 12.8339533,21.7285331 C14.024349,21.3086078 15.2519445,20.4687571 16.5167399,19.2089811 C17.8187352,17.9873802 19.3997295,16.0595411 21.2597227,13.425464 C22.4501184,11.7075877 23.3987149,10.0469739 24.1055123,8.4436226 C24.9611092,6.49669605 25.2029084,4.64520709 24.8309097,2.8891557 C24.5705107,1.59120467 23.8079134,0.713178974 22.543118,0.255078611 C21.9479202,-0.0121466005 21.1202232,-0.0694091459 20.0600271,0.0832909751 C18.9998309,0.235991096 18.0791343,0.598653883 17.2979371,1.17127934 C15.8099425,2.31653024 14.8055462,3.91988151 14.2847481,5.98133315 C15.0659452,5.6759329 15.7913426,5.5423203 16.4609401,5.58049533 C16.8701387,5.61867036 17.2049374,5.78091424 17.4653365,6.06722696 C17.7257355,6.35353969 17.8559351,6.68757121 17.8559351,7.06932151 C17.8559351,7.75647205 17.8001353,8.27183496 17.6885357,8.61541023 C17.0933378,10.2569365 16.2005411,11.8030253 15.0101454,13.2536764 C14.861346,13.4827266 14.6753466,13.6736017 14.4521474,13.8263019 C13.9313493,14.2844022 13.466351,14.1889646 13.0571525,13.5399891 C12.7223537,12.8910136 12.4805546,12.3374757 12.3317552,11.8793753 C12.1457558,11.2303998 11.7179574,8.90172296 11.0483598,4.89334478 C10.8251606,3.44269364 10.4903619,2.35470527 10.0439635,1.6293797 C9.37436591,0.598653883 8.44436929,0.178728551 7.25397362,0.369603702 C6.58437606,0.445953762 5.6915793,0.96131667 4.57558336,1.91569243 L4.57558336,1.91569243 L0,5.98133315 L1.17179574,7.52742187 L2.73419006,6.49669605 C3.1061887,6.3058209 3.42238755,6.3058209 3.68278661,6.49669605 C4.01758539,6.84027133 4.24078458,7.10749654 4.35238417,7.29837169 C4.72438282,8.02369726 5.00338181,8.65358526 5.18938113,9.18803569 C6.04497802,12.2038631 6.75177545,14.7615901 7.30977342,16.8612168 C7.68177207,18.3500429 8.20257017,19.5525564 8.87216774,20.4687571 Z" id=""></path>
                    </g>
                </g>
            </g>
        </g>
    </g>
</svg>